<svg width="193" height="71" viewBox="0 0 193 71" fill="none" xmlns="http://www.w3.org/2000/svg">
<path d="M9.84375 65.9265H3.11719V32.3171H9.84375V45.7702H23.2734V32.3171H30V65.9265H23.2734V52.4968H9.84375V65.9265ZM59.4609 53.153C59.4609 55.028 59.125 56.778 58.4531 58.403C57.7812 60.0124 56.8672 61.4108 55.7109 62.5983C54.5547 63.7702 53.1953 64.6999 51.6328 65.3874C50.0859 66.0593 48.4219 66.3952 46.6406 66.3952C44.875 66.3952 43.2109 66.0593 41.6484 65.3874C40.1016 64.6999 38.7422 63.7702 37.5703 62.5983C36.4141 61.4108 35.5 60.0124 34.8281 58.403C34.1562 56.778 33.8203 55.028 33.8203 53.153C33.8203 51.2468 34.1562 49.4812 34.8281 47.8562C35.5 46.2312 36.4141 44.8327 37.5703 43.6608C38.7422 42.4733 40.1016 41.5437 41.6484 40.8718C43.2109 40.1999 44.875 39.864 46.6406 39.864C48.4219 39.864 50.0859 40.1843 51.6328 40.8249C53.1953 41.4499 54.5547 42.3483 55.7109 43.5202C56.8672 44.6765 57.7812 46.0749 58.4531 47.7155C59.125 49.3405 59.4609 51.153 59.4609 53.153ZM53.0156 53.153C53.0156 52.1218 52.8438 51.1921 52.5 50.364C52.1719 49.5202 51.7188 48.8015 51.1406 48.2077C50.5625 47.5983 49.8828 47.1374 49.1016 46.8249C48.3359 46.4968 47.5156 46.3327 46.6406 46.3327C45.7656 46.3327 44.9375 46.4968 44.1562 46.8249C43.3906 47.1374 42.7188 47.5983 42.1406 48.2077C41.5781 48.8015 41.1328 49.5202 40.8047 50.364C40.4766 51.1921 40.3125 52.1218 40.3125 53.153C40.3125 54.1218 40.4766 55.0202 40.8047 55.8483C41.1328 56.6765 41.5781 57.3952 42.1406 58.0046C42.7188 58.614 43.3906 59.0983 44.1562 59.4577C44.9375 59.8015 45.7656 59.9733 46.6406 59.9733C47.5156 59.9733 48.3359 59.8093 49.1016 59.4812C49.8828 59.153 50.5625 58.6921 51.1406 58.0983C51.7188 57.5046 52.1719 56.7858 52.5 55.9421C52.8438 55.0983 53.0156 54.1687 53.0156 53.153ZM69.4453 65.9265H63V30.8405H69.4453V65.9265ZM81.8906 34.0046C81.8906 34.5983 81.7734 35.153 81.5391 35.6687C81.3203 36.1843 81.0156 36.6374 80.625 37.028C80.2344 37.403 79.7734 37.7077 79.2422 37.9421C78.7266 38.1608 78.1719 38.2702 77.5781 38.2702C76.9844 38.2702 76.4219 38.1608 75.8906 37.9421C75.375 37.7077 74.9219 37.403 74.5312 37.028C74.1562 36.6374 73.8516 36.1843 73.6172 35.6687C73.3984 35.153 73.2891 34.5983 73.2891 34.0046C73.2891 33.4265 73.3984 32.8796 73.6172 32.364C73.8516 31.8327 74.1562 31.3796 74.5312 31.0046C74.9219 30.614 75.375 30.3093 75.8906 30.0905C76.4219 29.8562 76.9844 29.739 77.5781 29.739C78.1719 29.739 78.7266 29.8562 79.2422 30.0905C79.7734 30.3093 80.2344 30.614 80.625 31.0046C81.0156 31.3796 81.3203 31.8327 81.5391 32.364C81.7734 32.8796 81.8906 33.4265 81.8906 34.0046ZM80.7891 65.9265H74.3438V40.8249H80.7891V65.9265ZM109.945 65.9265H108.398L105.914 62.4812C105.305 63.028 104.656 63.5437 103.969 64.028C103.297 64.4968 102.586 64.9108 101.836 65.2702C101.086 65.614 100.312 65.8874 99.5156 66.0905C98.7344 66.2937 97.9375 66.3952 97.125 66.3952C95.3594 66.3952 93.6953 66.0671 92.1328 65.4108C90.5859 64.739 89.2266 63.8171 88.0547 62.6452C86.8984 61.4577 85.9844 60.0593 85.3125 58.4499C84.6406 56.8249 84.3047 55.0593 84.3047 53.153C84.3047 51.2624 84.6406 49.5046 85.3125 47.8796C85.9844 46.2546 86.8984 44.8483 88.0547 43.6608C89.2266 42.4733 90.5859 41.5437 92.1328 40.8718C93.6953 40.1999 95.3594 39.864 97.125 39.864C97.6875 39.864 98.2656 39.9108 98.8594 40.0046C99.4688 40.0983 100.055 40.2546 100.617 40.4733C101.195 40.6765 101.734 40.9499 102.234 41.2937C102.734 41.6374 103.156 42.0593 103.5 42.5593V30.8405H109.945V65.9265ZM103.5 53.153C103.5 52.278 103.328 51.4343 102.984 50.6218C102.656 49.7937 102.203 49.0671 101.625 48.4421C101.047 47.8015 100.367 47.2937 99.5859 46.9187C98.8203 46.528 98 46.3327 97.125 46.3327C96.25 46.3327 95.4219 46.489 94.6406 46.8015C93.875 47.114 93.2031 47.5671 92.625 48.1608C92.0625 48.739 91.6172 49.4499 91.2891 50.2937C90.9609 51.1374 90.7969 52.0905 90.7969 53.153C90.7969 54.0749 90.9609 54.9499 91.2891 55.778C91.6172 56.6062 92.0625 57.3327 92.625 57.9577C93.2031 58.5827 93.875 59.0749 94.6406 59.4343C95.4219 59.7937 96.25 59.9733 97.125 59.9733C98 59.9733 98.8203 59.7858 99.5859 59.4108C100.367 59.0202 101.047 58.5124 101.625 57.8874C102.203 57.2468 102.656 56.5202 102.984 55.7077C103.328 54.8796 103.5 54.028 103.5 53.153ZM139.148 65.9265H137.602L135.117 62.4812C134.508 63.028 133.859 63.5437 133.172 64.028C132.5 64.4968 131.789 64.9108 131.039 65.2702C130.289 65.614 129.516 65.8874 128.719 66.0905C127.938 66.2937 127.141 66.3952 126.328 66.3952C124.562 66.3952 122.898 66.0983 121.336 65.5046C119.789 64.9108 118.43 64.0515 117.258 62.9265C116.102 61.7858 115.188 60.3952 114.516 58.7546C113.844 57.114 113.508 55.2468 113.508 53.153C113.508 51.1999 113.844 49.4108 114.516 47.7858C115.188 46.1452 116.102 44.739 117.258 43.5671C118.43 42.3952 119.789 41.489 121.336 40.8483C122.898 40.1921 124.562 39.864 126.328 39.864C127.141 39.864 127.945 39.9655 128.742 40.1687C129.539 40.3718 130.312 40.653 131.062 41.0124C131.812 41.3718 132.523 41.7937 133.195 42.278C133.883 42.7624 134.523 43.2858 135.117 43.8483L137.602 40.8718H139.148V65.9265ZM132.703 53.153C132.703 52.278 132.531 51.4343 132.188 50.6218C131.859 49.7937 131.406 49.0671 130.828 48.4421C130.25 47.8015 129.57 47.2937 128.789 46.9187C128.023 46.528 127.203 46.3327 126.328 46.3327C125.453 46.3327 124.625 46.4812 123.844 46.778C123.078 47.0749 122.406 47.5124 121.828 48.0905C121.266 48.6687 120.82 49.3874 120.492 50.2468C120.164 51.0905 120 52.0593 120 53.153C120 54.2468 120.164 55.2233 120.492 56.0827C120.82 56.9265 121.266 57.6374 121.828 58.2155C122.406 58.7937 123.078 59.2312 123.844 59.528C124.625 59.8249 125.453 59.9733 126.328 59.9733C127.203 59.9733 128.023 59.7858 128.789 59.4108C129.57 59.0202 130.25 58.5124 130.828 57.8874C131.406 57.2468 131.859 56.5202 132.188 55.7077C132.531 54.8796 132.703 54.028 132.703 53.153ZM163.641 65.9265H142.711L153.281 47.2468H142.711V40.8718H163.641L153.07 59.5515H163.641V65.9265ZM176.812 59.7858C177.062 59.864 177.312 59.9187 177.562 59.9499C177.812 59.9655 178.062 59.9733 178.312 59.9733C178.938 59.9733 179.539 59.8874 180.117 59.7155C180.695 59.5437 181.234 59.3015 181.734 58.989C182.25 58.6608 182.703 58.2702 183.094 57.8171C183.5 57.3483 183.828 56.8327 184.078 56.2702L188.766 60.9812C188.172 61.8249 187.484 62.5827 186.703 63.2546C185.938 63.9265 185.102 64.4968 184.195 64.9655C183.305 65.4343 182.359 65.7858 181.359 66.0202C180.375 66.2702 179.359 66.3952 178.312 66.3952C176.547 66.3952 174.883 66.0671 173.32 65.4108C171.773 64.7546 170.414 63.8405 169.242 62.6687C168.086 61.4968 167.172 60.1062 166.5 58.4968C165.828 56.8718 165.492 55.0905 165.492 53.153C165.492 51.1687 165.828 49.3562 166.5 47.7155C167.172 46.0749 168.086 44.6765 169.242 43.5202C170.414 42.364 171.773 41.4655 173.32 40.8249C174.883 40.1843 176.547 39.864 178.312 39.864C179.359 39.864 180.383 39.989 181.383 40.239C182.383 40.489 183.328 40.8483 184.219 41.3171C185.125 41.7858 185.969 42.364 186.75 43.0515C187.531 43.7233 188.219 44.4812 188.812 45.3249L176.812 59.7858ZM180.094 46.5905C179.797 46.4812 179.5 46.4108 179.203 46.3796C178.922 46.3483 178.625 46.3327 178.312 46.3327C177.438 46.3327 176.609 46.4968 175.828 46.8249C175.062 47.1374 174.391 47.5905 173.812 48.1843C173.25 48.778 172.805 49.4968 172.477 50.3405C172.148 51.1687 171.984 52.1062 171.984 53.153C171.984 53.3874 171.992 53.653 172.008 53.9499C172.039 54.2468 172.078 54.5515 172.125 54.864C172.188 55.1608 172.258 55.4499 172.336 55.7312C172.414 56.0124 172.516 56.2624 172.641 56.4812L180.094 46.5905Z" fill="black"/>
<path d="M161.895 10.9333V6.5H171.697V22.6667V23.7795L172.524 24.5242L182.489 33.5H120.646L150.605 7.24348L157.856 12.904L161.895 16.0565V10.9333Z" fill="#FFC857" stroke="black" stroke-width="5"/>
</svg>
